PathFileType	4	(X/Y/Z)	AB06\squats_1.trc
DataRate	CameraRate	NumFrames	NumMarkers	Units	OrigDataRate	OrigDataStartFrame	OrigNumFrames
200.000000	200.000000	4	35	mm	200.000000	0	392
Frame#	Time	C7			LSHO			LASI			RASI			LPSI			RPSI			LGTR			RGTR			LTHC			LTHL			LTHR			LKNE			LMKNE			LSHC			LSHL			LSHR			LANK			LMANK			LMT1			LMT5			LCAL			RTHC			RTHL			RTHR			RKNE			RMKNE			RSHC			RSHL			RSHR			RANK			RMANK			RMT1			RMT5			RCAL			STRN			
		X1	Y1	Z1	X2	Y2	Z2	X3	Y3	Z3	X4	Y4	Z4	X5	Y5	Z5	X6	Y6	Z6	X7	Y7	Z7	X8	Y8	Z8	X9	Y9	Z9	X10	Y10	Z10	X11	Y11	Z11	X12	Y12	Z12	X13	Y13	Z13	X14	Y14	Z14	X15	Y15	Z15	X16	Y16	Z16	X17	Y17	Z17	X18	Y18	Z18	X19	Y19	Z19	X20	Y20	Z20	X21	Y21	Z21	X22	Y22	Z22	X23	Y23	Z23	X24	Y24	Z24	X25	Y25	Z25	X26	Y26	Z26	X27	Y27	Z27	X28	Y28	Z28	X29	Y29	Z29	X30	Y30	Z30	X31	Y31	Z31	X32	Y32	Z32	X33	Y33	Z33	X34	Y34	Z34	X35	Y35	Z35	

1	44.905	-3543.130344489409	1649.227279101226	2505.077038646268	-3637.804042648649	1583.856047757021	2652.889187077999	-3590.079991345151	1099.781570838384	2616.155674767266	-3575.217112245131	1098.39792483724	2357.968639226289	-3406.377127706509	1113.976998341289	2541.13880394427	-3402.872987155957	1114.246399914822	2443.009469112988	-3519.499176373272	1028.265855114519	2673.296314254188	-3523.530829254822	1063.263307188805	2313.406924239989	-3552.780932983174	890.5999050735512	2711.053801306326	-3635.929846875665	780.3901911289555	2665.595013563135	-3457.467733001669	750.0489123652681	2664.963050849131	-3568.446158307191	560.525141063058	2747.867913526132	-3596.7750046184	535.0201903030037	2653.884874426046	-3463.711585419442	479.963508021014	2740.520385757449	-3528.795181556874	246.6977529436187	2745.246678220393	-3433.809534218699	252.605194871604	2704.986008055442	-3453.058948135457	108.4267739021174	2771.281665300637	-3486.482265670296	116.1273135420378	2688.610986995823	-3618.062156099792	49.61717491709423	2713.229152444404	-3568.720201492392	50.107243993715	2828.033185733319	-3393.91334201065	80.95109587439873	2719.68167328725	-3463.550652364956	711.9636813035569	2326.092520054798	-3538.829732301889	837.0015075489966	2269.357438470837	-3639.373662469053	767.7413984544236	2362.483897046181	-3582.505314275375	551.5456317860608	2261.2460027275	-3604.0932158945	532.9481251195002	2359.018115478862	-3458.324314777757	248.1566284247661	2293.361347515471	-3500.594643360488	476.2147321255059	2245.801142737896	-3555.317723980098	238.7119231586819	2266.887926799416	-3483.220601881844	111.5229244089006	2236.39999435452	-3518.036671672324	117.9084335327763	2317.789513993753	-3642.894161048535	51.21106945444446	2300.603465540155	-3610.082598527626	38.03053181333487	2181.600951209922	-3427.632484559376	80.71800180387196	2275.911060223205	-3652.841606086547	1368.305917979584	2491.065313419546	
2	44.91	-3544.419653521651	1648.251411622874	2504.875648986776	-3638.754481655246	1582.484269406084	2652.77691681626	-3588.430933302018	1098.849800114672	2616.077546873932	-3573.994088880165	1097.519984797069	2358.021509076857	-3404.77589973073	1113.320182259577	2540.989694824129	-3401.481405920662	1113.613118214414	2442.822396865814	-3517.846378746539	1027.522992696133	2673.263167030268	-3522.262185012177	1062.549535782903	2313.445459884085	-3552.045985605042	890.1052789057366	2711.436355980546	-3635.871276330837	780.4341823967994	2665.935632110493	-3457.782930982927	748.747310007964	2665.880183116879	-3570.300628348129	560.1690030963973	2748.836157991527	-3598.684452522398	534.7805753189102	2654.797719352513	-3465.53092446491	479.8596073599145	2741.310921303636	-3529.554759856665	246.3535418520982	2745.522825540446	-3434.602335690015	252.7929693898734	2705.305152922757	-3453.185041900606	108.49457968266	2771.297201321331	-3486.581751405732	116.1211555990651	2688.60890813026	-3618.068909381967	49.62134339876835	2713.232339620445	-3568.723683961512	50.12883590232972	2828.018138860602	-3393.909082399551	80.99404721271057	2719.629786556758	-3464.052484609514	710.9699386959812	2325.188472026916	-3538.730546660844	836.4826902044888	2268.924499080299	-3639.2669192804	767.7238177551269	2362.353690654938	-3584.188775006349	551.2554681857255	2260.505161799179	-3605.780410460783	532.7082865944396	2358.29290298531	-3458.947689684714	248.3182951399974	2292.964340627043	-3502.241588281491	476.068663100965	2245.09944659042	-3555.929024009456	238.4260073997474	2266.697574956975	-3483.295589454722	111.5474610311106	2236.290666244357	-3518.10490855647	117.9243362627282	2317.737388074665	-3642.871920315582	51.2276272496777	2300.601907075187	-3610.080963432721	38.02669578645796	2181.593567917866	-3427.61889902583	80.68350551186153	2275.875272276372	-3652.953302128775	1366.851716823059	2491.102093626504	
3	44.915	-3545.711596092492	1647.269136876163	2504.672227280998	-3639.704954653529	1581.107058202093	2652.661875509919	-3586.776939159671	1097.913304329648	2616.003344838937	-3572.768934366806	1096.63843444134	2358.07713205956	-3403.172534079786	1112.659542772289	2540.840727206743	-3400.086821008516	1112.978935455601	2442.635161160065	-3516.186959183638	1026.773447047114	2673.231366588516	-3520.992520071171	1061.833303038205	2313.486869726162	-3551.30376335316	889.6060796345606	2711.821086136781	-3635.81219816234	780.4775790453721	2666.28479800275	-3458.097720982097	747.441277729358	2666.795921301401	-3572.155556131253	559.8092476368209	2749.807199173584	-3600.598163305177	534.5395853124222	2655.716287062493	-3467.351637309056	479.7537544051269	2742.103605175178	-3530.312624385539	246.0086576322716	2745.800260253074	-3435.393824205119	252.9796855178295	2705.624516504963	-3453.309797518833	108.5606513270422	2771.313038340211	-3486.679785929041	116.1151890017523	2688.607262627638	-3618.074259243922	49.62535069302522	2713.235524788061	-3568.726680395197	50.15082441596715	2828.003233022318	-3393.904189521847	81.03597012971875	2719.578524653727	-3464.557114406534	709.9726767192224	2324.279352795368	-3538.633660070005	835.9601588181586	2268.489129624746	-3639.161288153579	767.704903908921	2362.223560542791	-3585.876266685124	550.9629508475728	2259.762347783054	-3607.47191579189	532.4651783728679	2357.566981326934	-3459.571655493467	248.4792605788497	2292.570043844297	-3503.889825851893	475.9204944958686	2244.398495178383	-3556.540247158302	238.1390063730953	2266.504667119047	-3483.370260365426	111.5703888972021	2236.184050974485	-3518.169816843268	117.9396418741694	2317.685864650367	-3642.849040511551	51.24460489123975	2300.600441558855	-3610.078945200995	38.02296394141587	2181.586426358476	-3427.604968897825	80.64813004948907	2275.839609481729	-3653.063573294171	1365.391321081011	2491.140427038324	
4	44.92	-3547.002757034856	1646.276086016856	2504.466941038092	-3640.652305884976	1579.722077051825	2652.543344085056	-3585.120664846876	1096.968447367574	2615.93522708311	-3571.543431584012	1095.750643525822	2358.136990608614	-3401.570507209847	1111.991094164248	2540.692366411282	-3398.69148636381	1112.341393161927	2442.448702679461	-3514.522797286684	1026.013312610218	2673.201615024256	-3519.724686719458	1061.112146646647	2313.532190530615	-3550.553800182995	889.0999157938237	2712.207347408574	-3635.752796004816	780.5183066683553	2666.643951419894	-3458.411191354219	746.1309236016405	2667.707768933005	-3574.006259656541	559.4449461440975	2750.779569772832	-3602.512932938132	534.2959844623153	2656.640651317327	-3469.168202052688	479.6448831726407	2742.896451713862	-3531.06545078383	245.66306475817	2746.07874307456	-3436.181564250024	253.1640361282096	2705.942186813837	-3453.431953691823	108.6236889874428	2771.328781125942	-3486.775464737254	116.109635507297	2688.60604982129	-3618.077715029927	49.62915282149111	2713.238663611669	-3568.728911091206	50.17310299395449	2827.988698919717	-3393.898545095065	81.07594113150888	2719.528436224129	-3465.066448672837	708.9719309733649	2323.365391452473	-3538.541024146349	835.4330933294158	2268.051922760992	-3639.057319936887	767.6824836338677	2362.094856015976	-3587.566193603799	550.6673670617464	2259.019874412462	-3609.164395609392	532.2183092483018	2356.842461199645	-3460.195570284377	248.6388400368532	2292.180324071599	-3505.536749317419	475.7691710373482	2243.700132220231	-3557.150384996425	237.8510059254421	2266.309569343406	-3483.444612846203	111.591707890401	2236.08055333798	-3518.231121941225	117.9542061881127	2317.635384588341	-3642.825583013337	51.26184535148597	2300.599055880488	-3610.07649403637	38.01930141108326	2181.579577830258	-3427.590785166959	80.61181479935306	2275.804137734135	-3653.17099445101	1363.922114807925	2491.181169886249	
